<svg width="160" height="181" viewBox="0 0 160 181" fill="none" xmlns="http://www.w3.org/2000/svg">
<path d="M53.0078 82.7998C53.6979 83.0413 54.6296 83.3519 55.8027 83.7314C56.9759 84.0765 58.3044 84.4388 59.7881 84.8184C61.2718 85.1634 62.8245 85.474 64.4463 85.75C66.1025 85.9915 67.7415 86.1123 69.3633 86.1123C71.8822 86.1123 74.125 85.7845 76.0918 85.1289C78.0586 84.4388 79.7148 83.5244 81.0605 82.3857C82.4062 81.2471 83.4242 79.9531 84.1143 78.5039C84.8389 77.0202 85.2012 75.502 85.2012 73.9492C85.2012 72.1549 84.7526 70.4814 83.8555 68.9287C82.9583 67.376 81.6644 66.0648 79.9736 64.9951C78.3174 63.9255 76.2988 63.1491 73.918 62.666C71.5716 62.1484 68.932 62.0449 65.999 62.3555V55.834L85.5117 40.7725L74.2803 41.3418H51.7656V22.0879H110.666V33.1123L85.4082 52.1592C90.0319 52.2972 94.1035 52.9873 97.623 54.2295C101.177 55.4717 104.145 57.1279 106.525 59.1982C108.906 61.2686 110.701 63.6667 111.908 66.3926C113.15 69.1185 113.771 72.0342 113.771 75.1396C113.771 78.9007 112.909 82.334 111.184 85.4395C109.458 88.5104 107.043 91.1501 103.938 93.3584C100.867 95.5322 97.1745 97.223 92.8613 98.4307C88.5482 99.6038 83.8037 100.19 78.6279 100.19C75.6605 100.19 72.7448 99.9834 69.8809 99.5693C67.0514 99.1898 64.3083 98.6377 61.6514 97.9131C58.9945 97.1885 56.4411 96.3086 53.9912 95.2734C51.5758 94.2383 49.333 93.0824 47.2627 91.8057L53.0078 82.7998Z" fill="#E7AD01"/>
<path d="M133 153H160V169C160 175.627 154.627 181 148 181H133V153Z" fill="#E7AD01"/>
<path d="M0 153H27V181H12C5.37258 181 0 175.627 0 169V153Z" fill="#E7AD01"/>
</svg>
