<svg width="160" height="181" viewBox="0 0 160 181" fill="none" xmlns="http://www.w3.org/2000/svg">
<path d="M47.7285 90.3564L65.2227 74.6221C68.6732 71.5166 71.5026 68.7044 73.7109 66.1855C75.9538 63.6667 77.7135 61.3376 78.9902 59.1982C80.3014 57.0589 81.1986 55.0749 81.6816 53.2461C82.1992 51.3828 82.458 49.5885 82.458 47.8633C82.458 45.7585 82.1475 43.8434 81.5264 42.1182C80.9053 40.3929 79.9909 38.9264 78.7832 37.7188C77.61 36.4766 76.1608 35.5277 74.4355 34.8721C72.7448 34.2165 70.7952 33.8887 68.5869 33.8887C65.516 33.8887 62.4795 34.5098 59.4775 35.752C56.4756 36.9941 53.6807 38.7021 51.0928 40.876L45.2959 31.8184C46.9521 30.3691 48.9535 28.9889 51.2998 27.6777C53.6807 26.332 56.3376 25.1589 59.2705 24.1582C62.2035 23.123 65.3434 22.3122 68.6904 21.7256C72.0719 21.139 75.6087 20.8457 79.3008 20.8457C84.373 20.8457 88.876 21.415 92.8096 22.5537C96.7432 23.6924 100.056 25.2624 102.747 27.2637C105.473 29.265 107.526 31.6286 108.906 34.3545C110.321 37.0804 111.028 40.0133 111.028 43.1533C111.028 46.2588 110.321 49.3815 108.906 52.5215C107.492 55.6615 105.335 58.7842 102.437 61.8896C99.5726 64.9951 95.9495 68.0661 91.5674 71.1025C87.1852 74.139 82.0439 77.0892 76.1436 79.9531L91.5156 78.7109H111.287V99H47.9355L48.0391 98.8965L47.7285 99V90.3564Z" fill="#E7AD01"/>
<path d="M133 153H160V169C160 175.627 154.627 181 148 181H133V153Z" fill="#E7AD01"/>
<path d="M0 153H27V181H12C5.37258 181 0 175.627 0 169V153Z" fill="#E7AD01"/>
</svg>
